<svg xmlns="http://www.w3.org/2000/svg" enable-background="new 0 0 24 24" viewBox="0 0 24 24" id="no-database"><path d="M16.5,24c-3.6,0-6.5-2.9-6.5-6.5s2.9-6.5,6.5-6.5s6.5,2.9,6.5,6.5S20.1,24,16.5,24z M16.5,12c-3,0-5.5,2.5-5.5,5.5
			s2.5,5.5,5.5,5.5s5.5-2.5,5.5-5.5S19.5,12,16.5,12z"></path><rect width="12" height="1" x="10.5" y="17" transform="rotate(-45.001 16.5 17.5)"></rect><path d="M11 7C6.2 7 1 5.8 1 3.5S6.2 0 11 0s10 1.2 10 3.5S15.8 7 11 7zM11 1C5.4 1 2 2.5 2 3.5S5.4 6 11 6s9-1.5 9-2.5S16.6 1 11 1zM11 10C6 10 1 9 1 7c0-.3.2-.5.5-.5S2 6.7 2 7c0 .7 3.2 2 9 2 .5 0 1 0 1.4 0 .3 0 .5.2.5.5 0 .3-.2.5-.5.5C12 10 11.5 10 11 10zM18.1 9.1c-.2 0-.4-.1-.5-.4-.1-.3.1-.5.3-.6 1.6-.5 2-1 2-1.2 0-.3.2-.5.5-.5S21 6.7 21 7c0 .9-.9 1.6-2.7 2.1C18.2 9.1 18.2 9.1 18.1 9.1zM9.1 12.9C9.1 12.9 9 12.9 9.1 12.9 5.1 12.7 1 11.9 1 10c0-.3.2-.5.5-.5S2 9.7 2 10c0 .5 2.1 1.7 7.1 1.9.3 0 .5.3.5.5C9.5 12.7 9.3 12.9 9.1 12.9z"></path><path d="M20.5 10C20.2 10 20 9.8 20 9.5v-6C20 3.2 20.2 3 20.5 3S21 3.2 21 3.5v6C21 9.8 20.8 10 20.5 10zM7.8 15.9C7.7 15.9 7.7 15.8 7.8 15.9 6.1 15.7 1 15 1 13V3.5C1 3.2 1.2 3 1.5 3S2 3.2 2 3.5V13c0 .4 1.5 1.4 5.8 1.9.3 0 .5.3.4.5C8.2 15.7 8 15.9 7.8 15.9z"></path></svg>